<svg width="87" height="32" viewBox="0 0 87 32" fill="none" xmlns="http://www.w3.org/2000/svg">
<g clip-path="url(#clip0)">
<path d="M83.7495 27.9431H85.8792V28.5382C85.8792 29.5741 85.5205 30.4778 84.041 30.4778C82.2252 30.4778 82.1131 29.1113 82.1131 27.1056C82.1131 25.4085 82.2252 23.6232 84.041 23.6232C85.4981 23.6232 85.9016 24.6591 85.9016 25.7611L87 25.5848C87 24.042 86.462 22.6094 84.0634 22.6094C81.4182 22.6094 80.9699 24.7693 80.9699 27.1056C80.9699 29.8166 81.4406 31.4916 84.0634 31.4916C86.462 31.4916 87 29.9929 87 28.4941V27.0174H83.7944V27.9431H83.7495ZM74.5586 22.6975V29.2655L70.4339 22.6975H69.4924V31.4035H70.6581V25.0558L74.6034 31.4035H75.7243V22.6975H74.5586ZM62.8122 31.3814H63.9778V22.6755H62.8122V31.3814ZM58.3512 30.3896H54.7645V22.6975H53.5988V31.4035H58.3512V30.3896ZM47.2772 28.3619C47.2772 29.5741 46.8962 30.4778 45.4615 30.4778C43.6457 30.4778 43.5336 29.1333 43.5336 27.1276C43.5336 25.4305 43.6457 23.6232 45.4615 23.6232C46.8962 23.6232 47.2772 24.6591 47.2772 25.7611L48.4205 25.5407C48.4205 24.02 47.8601 22.6094 45.4839 22.6094C42.8387 22.6094 42.3904 24.7693 42.3904 27.1276C42.3904 29.8386 42.8611 31.4916 45.4839 31.4916C47.8601 31.4916 48.4205 30.1031 48.4205 28.5382L47.2772 28.3619ZM31.7199 22.6975L34.3427 27.9652V31.4035H35.5084V27.9652L38.1536 22.6975H36.9655L34.9704 26.753L32.9977 22.6975H31.7199ZM26.2278 28.3619C26.2278 29.5741 25.8467 30.4778 24.412 30.4778C22.5962 30.4778 22.4842 29.1333 22.4842 27.1276C22.4842 25.4305 22.5962 23.6232 24.412 23.6232C25.8467 23.6232 26.2278 24.6591 26.2278 25.7611L27.371 25.5407C27.371 24.02 26.8106 22.6094 24.4344 22.6094C21.7892 22.6094 21.3409 24.7693 21.3409 27.1276C21.3409 29.8386 21.8116 31.4916 24.4344 31.4916C26.8106 31.4916 27.371 30.1031 27.371 28.5382L26.2278 28.3619ZM16.6109 30.3896H12.4414V27.4803H15.8936V26.4664H12.4414V23.6894H16.6109V22.6975H11.2757V31.4035H16.6109V30.3896ZM2.69003 23.7114C3.96779 23.7114 4.9093 24.1742 4.9093 25.3644C4.9093 26.5105 3.99021 26.9513 2.73486 26.9513H1.16568V23.6894H2.69003V23.7114ZM5.89565 31.3814L4.16954 27.7448C5.31281 27.4142 6.05256 26.6428 6.05256 25.3644C6.05256 23.3808 4.70755 22.6755 2.75728 22.6755H0V31.3814H1.16568V27.9431H2.73486C2.89178 27.9431 2.95903 27.9431 3.07112 27.9211L4.72997 31.3814H5.89565Z" fill="white"/>
<path d="M0 0H17.4804V17.7645H0V0ZM7.03233 7.89533L8.55042 1.20245C4.46497 1.27051 1.16089 4.69636 1.16089 8.8709C1.16089 10.2095 1.49577 11.4573 2.07621 12.5463L7.03233 7.89533ZM8.75135 10.8674L2.27714 12.8866C4.42032 16.4486 8.97459 17.6284 12.5242 15.5184C13.6628 14.8605 14.5558 13.9303 15.1809 12.8866L8.75135 10.8674ZM15.3818 12.5463C15.9846 11.4573 16.2971 10.2095 16.2971 8.8709C16.2971 4.69636 13.0154 1.27051 8.90762 1.17976L10.4257 7.87264L15.3818 12.5463ZM6.29561 4.46948C6.29561 4.46948 5.91609 3.56197 5.00077 3.53928C4.46497 3.5166 3.46035 3.67541 3.4157 4.69636C3.37105 6.2845 5.87144 5.69462 5.82679 6.80632C5.80446 7.16932 5.60354 7.50964 4.91147 7.48695C4.10777 7.46426 3.83988 7.01051 3.72825 6.71557L3.28175 6.89707C3.28175 6.89707 3.4157 7.96339 4.95612 8.00877C6.25096 8.05414 6.42956 7.01051 6.45189 6.78363C6.51886 5.05936 3.99615 5.62655 4.01848 4.69636C4.0408 4.12917 4.71055 4.08379 4.88914 4.08379C5.62587 4.10648 5.75981 4.65098 5.84911 4.67367L6.29561 4.46948ZM12.7475 3.58466L11.3187 7.87264H11.8545L12.1447 6.94244H13.7521L14.0647 7.87264H14.7344L13.3949 3.58466H12.7475ZM13.5958 6.39794H12.3456L12.9931 4.44679L13.5958 6.39794ZM8.72902 15.5638C9.59969 15.5638 9.84526 14.5655 9.84526 13.8622C9.84526 13.4992 9.77829 13.0681 9.59969 12.7505C9.42109 12.4329 9.10854 12.206 8.72902 12.206C7.83603 12.206 7.59045 13.1816 7.59045 13.9303C7.59045 14.6109 7.88068 15.5638 8.72902 15.5638ZM8.72902 16.0856C7.52348 16.0856 6.98768 14.9739 6.98768 13.9076C6.98768 12.8413 7.50115 11.6615 8.72902 11.6615C9.91224 11.6615 10.4704 12.7732 10.4704 13.8168C10.4704 14.8831 9.93456 16.0856 8.72902 16.0856ZM31.3441 8.59865C31.9692 9.39272 32.3487 10.7994 32.3487 12.0472C32.3487 12.9547 32.1701 13.8395 31.8576 14.5655C31.6567 15.0193 30.9423 16.3805 29.3572 17.0839C28.7991 17.3334 27.7498 17.6964 26.1201 17.6964H20.8068V13.9076H25.7629C26.455 13.9076 28.1517 13.9076 28.1517 12.0926C28.1517 10.6632 26.9461 10.5044 25.7852 10.3229C23.7313 10.028 22.5035 9.50616 21.6774 8.66671C20.8514 7.82726 20.3156 6.55675 20.3156 5.12743C20.3156 3.5166 20.7621 2.33684 22.057 1.2932C23.3295 0.249565 24.7359 0.0226877 26.5889 0.0226877H31.0539V3.6981H26.9461C25.8299 3.6981 24.6243 3.81154 24.6243 5.10474C24.6243 6.26181 25.8522 6.44331 27.0577 6.60213C28.7098 6.80632 30.2502 7.19201 31.3441 8.59865ZM32.3041 0V3.67541H35.5412V17.7191H39.9838V3.67541H43.1763V0H32.3041ZM67.1309 0.0226877V10.2549C66.9746 9.89185 66.729 9.32465 66.5504 8.96165L61.6613 0.0226877H57.4865V17.7191H61.4827V7.55501C61.6389 7.96339 61.8622 8.48521 62.0631 8.82552L67.0192 17.6964H71.2163V0H67.1309V0.0226877ZM81.9546 14.679L82.7359 17.7191L87 17.6964L82.2001 0H77.0208L72.3326 17.6964H76.5296L77.3556 14.679H81.9546ZM44.5158 0.0226877V17.7191H56.0801V13.9076H49.137V10.391H54.2941V6.98782H49.1147V3.67541H56.1024V0.0226877H44.5158ZM80.9723 11.1624H78.271L78.963 8.37177C79.3202 6.829 79.5212 5.89881 79.6105 5.28624C79.7221 5.89881 79.856 6.85169 80.2579 8.37177L80.9723 11.1624Z" fill="white"/>
</g>
<defs>
<clipPath id="clip0">
<rect width="87" height="32" fill="white"/>
</clipPath>
</defs>
</svg>
