
<svg width="87px" height="18px" viewBox="0 0 87 18" version="1.1" xmlns="http://www.w3.org/2000/svg" xmlns:xlink="http://www.w3.org/1999/xlink">
    <g id="Page-1" stroke="none" stroke-width="1" fill="none" fill-rule="evenodd">
        <g id="logo_stena" fill="#FFFFFF" fill-rule="nonzero">
            <path d="M0,0 L17.4804,0 L17.4804,17.7645 L0,17.7645 L0,0 Z M7.03233,7.89533 L8.55042,1.20245 C4.46497,1.27051 1.16089,4.69636 1.16089,8.8709 C1.16089,10.2095 1.49577,11.4573 2.07621,12.5463 L7.03233,7.89533 Z M8.75135,10.8674 L2.27714,12.8866 C4.42032,16.4486 8.97459,17.6284 12.5242,15.5184 C13.6628,14.8605 14.5558,13.9303 15.1809,12.8866 L8.75135,10.8674 Z M15.3818,12.5463 C15.9846,11.4573 16.2971,10.2095 16.2971,8.8709 C16.2971,4.69636 13.0154,1.27051 8.90762,1.17976 L10.4257,7.87264 L15.3818,12.5463 Z M6.29561,4.46948 C6.29561,4.46948 5.91609,3.56197 5.00077,3.53928 C4.46497,3.5166 3.46035,3.67541 3.4157,4.69636 C3.37105,6.2845 5.87144,5.69462 5.82679,6.80632 C5.80446,7.16932 5.60354,7.50964 4.91147,7.48695 C4.10777,7.46426 3.83988,7.01051 3.72825,6.71557 L3.28175,6.89707 C3.28175,6.89707 3.4157,7.96339 4.95612,8.00877 C6.25096,8.05414 6.42956,7.01051 6.45189,6.78363 C6.51886,5.05936 3.99615,5.62655 4.01848,4.69636 C4.0408,4.12917 4.71055,4.08379 4.88914,4.08379 C5.62587,4.10648 5.75981,4.65098 5.84911,4.67367 L6.29561,4.46948 Z M12.7475,3.58466 L11.3187,7.87264 L11.8545,7.87264 L12.1447,6.94244 L13.7521,6.94244 L14.0647,7.87264 L14.7344,7.87264 L13.3949,3.58466 L12.7475,3.58466 Z M13.5958,6.39794 L12.3456,6.39794 L12.9931,4.44679 L13.5958,6.39794 Z M8.72902,15.5638 C9.59969,15.5638 9.84526,14.5655 9.84526,13.8622 C9.84526,13.4992 9.77829,13.0681 9.59969,12.7505 C9.42109,12.4329 9.10854,12.206 8.72902,12.206 C7.83603,12.206 7.59045,13.1816 7.59045,13.9303 C7.59045,14.6109 7.88068,15.5638 8.72902,15.5638 Z M8.72902,16.0856 C7.52348,16.0856 6.98768,14.9739 6.98768,13.9076 C6.98768,12.8413 7.50115,11.6615 8.72902,11.6615 C9.91224,11.6615 10.4704,12.7732 10.4704,13.8168 C10.4704,14.8831 9.93456,16.0856 8.72902,16.0856 Z M31.3441,8.59865 C31.9692,9.39272 32.3487,10.7994 32.3487,12.0472 C32.3487,12.9547 32.1701,13.8395 31.8576,14.5655 C31.6567,15.0193 30.9423,16.3805 29.3572,17.0839 C28.7991,17.3334 27.7498,17.6964 26.1201,17.6964 L20.8068,17.6964 L20.8068,13.9076 L25.7629,13.9076 C26.455,13.9076 28.1517,13.9076 28.1517,12.0926 C28.1517,10.6632 26.9461,10.5044 25.7852,10.3229 C23.7313,10.028 22.5035,9.50616 21.6774,8.66671 C20.8514,7.82726 20.3156,6.55675 20.3156,5.12743 C20.3156,3.5166 20.7621,2.33684 22.057,1.2932 C23.3295,0.249565 24.7359,0.0226877 26.5889,0.0226877 L31.0539,0.0226877 L31.0539,3.6981 L26.9461,3.6981 C25.8299,3.6981 24.6243,3.81154 24.6243,5.10474 C24.6243,6.26181 25.8522,6.44331 27.0577,6.60213 C28.7098,6.80632 30.2502,7.19201 31.3441,8.59865 Z M32.3041,0 L32.3041,3.67541 L35.5412,3.67541 L35.5412,17.7191 L39.9838,17.7191 L39.9838,3.67541 L43.1763,3.67541 L43.1763,0 L32.3041,0 Z M67.1309,0.0226877 L67.1309,10.2549 C66.9746,9.89185 66.729,9.32465 66.5504,8.96165 L61.6613,0.0226877 L57.4865,0.0226877 L57.4865,17.7191 L61.4827,17.7191 L61.4827,7.55501 C61.6389,7.96339 61.8622,8.48521 62.0631,8.82552 L67.0192,17.6964 L71.2163,17.6964 L71.2163,0 L67.1309,0 L67.1309,0.0226877 Z M81.9546,14.679 L82.7359,17.7191 L87,17.6964 L82.2001,0 L77.0208,0 L72.3326,17.6964 L76.5296,17.6964 L77.3556,14.679 L81.9546,14.679 Z M44.5158,0.0226877 L44.5158,17.7191 L56.0801,17.7191 L56.0801,13.9076 L49.137,13.9076 L49.137,10.391 L54.2941,10.391 L54.2941,6.98782 L49.1147,6.98782 L49.1147,3.67541 L56.1024,3.67541 L56.1024,0.0226877 L44.5158,0.0226877 Z M80.9723,11.1624 L78.271,11.1624 L78.963,8.37177 C79.3202,6.829 79.5212,5.89881 79.6105,5.28624 C79.7221,5.89881 79.856,6.85169 80.2579,8.37177 L80.9723,11.1624 Z" id="Shape"></path>
        </g>
    </g>
</svg>